# xmcd
#
# Track frame offsets:
#	182
#	24425
#	49000
#	65275
#	84875
#	97525
#	116225
#	133250
#	161025
#	179175
#	202312
#	222637
#	241650
#	259925
#	276275
#	297250
#
# Disc length: 4168
#
# Revision: 1
# Processed by: cddbd v1.5.1PL0 Copyright (c) Steve Scherf et al.
# Submitted via: EasyCDDAExtractor 4.6.9.1
# Normalized: r0:TDELIM( - )
#
DISCID=f4104610
DTITLE=Various Artist - Blues Mania
DYEAR=2000
DGENRE=Blues
TTITLE0=Maurice john Vaughn - (Everthing I Do) Got To Be Funk
TTITLE1=Solomon Burke - Good Rockin' ToNight
TTITLE2=Snooks Eaglins - Baby, Please Come On
TTITLE3=Koko Taylor - It's a Dirty Job
TTITLE4=Smokey Wilson and The William Clarke Band - Dimpless
TTITLE5=Albert Collins - Ain't Drunk
TTITLE6=Eddy Clearwater - Help YourSelf
TTITLE7=Son Seals - Sadie
TTITLE8=Lazy Lester - I'm a Man
TTITLE9=Grady Gaines and The Texas Upsetter - Baby Work Out
TTITLE10=A.C. Reed - She's Fine
TTITLE11=The Lonnie Brooks Band - Move Over, Little Dog
TTITLE12=Blues Boy Willie - Hard Headed Woman
TTITLE13=The Lonnie Brooks Band - EyeBallin'
TTITLE14=Little Jimmy King and The Memphis Soul Survivers - Doin' My Own Thing
TTITLE15=Lynn August - Love At The First Sight
EXTD=
EXTT0=
EXTT1=
EXTT2=
EXTT3=
EXTT4=
EXTT5=
EXTT6=
EXTT7=
EXTT8=
EXTT9=
EXTT10=
EXTT11=
EXTT12=
EXTT13=
EXTT14=
EXTT15=
PLAYORDER=
